<?xml version="1.0" encoding="iso-8859-1"?>
<!-- Generator: Adobe Illustrator 16.0.0, SVG Export Plug-In . SVG Version: 6.00 Build 0)  -->
<!DOCTYPE svg PUBLIC "-//W3C//DTD SVG 1.1//EN" "http://www.w3.org/Graphics/SVG/1.1/DTD/svg11.dtd">
<svg version="1.1" id="Capa_1" xmlns="http://www.w3.org/2000/svg" xmlns:xlink="http://www.w3.org/1999/xlink" x="0px" y="0px"
	 width="466.215px" height="466.215px" viewBox="0 0 466.215 466.215" style="enable-background:new 0 0 466.215 466.215;"
	 xml:space="preserve">
<g>
	<g>
		<path d="M233.112,197.103c-19.857,0-36.011,16.153-36.011,36.002c0,19.84,16.153,35.992,36.011,35.992
			c19.853,0,35.987-16.152,35.987-35.992C269.099,213.256,252.964,197.103,233.112,197.103z"/>
		<path d="M460.826,223.137l-58.217-58.235c-0.018,0-0.018-0.012-0.035-0.012L252.213,14.524c0,0-0.019,0-0.019-0.012l-6.07-6.077
			c-7.188-7.182-18.849-7.182-26.019,0l-6.077,6.077c0,0.012-0.018,0.012-0.018,0.012L63.657,164.896
			c-0.018,0-0.018,0.012-0.036,0.012L5.386,223.143c-7.182,7.196-7.182,18.831,0,26.019c3.591,3.591,8.299,5.381,13.012,5.381
			c4.708,0,9.434-1.79,13.012-5.381l26.842-26.835l18.398,196.368c0,24.523,19.948,44.472,44.472,44.472h223.984
			c24.512,0,44.472-19.948,44.472-44.472l18.393-196.368l26.83,26.835c3.591,3.591,8.298,5.381,13.013,5.381
			c4.701,0,9.434-1.79,13.006-5.381C468.013,241.968,468.013,230.333,460.826,223.137z M233.112,305.895
			c-40.142,0-72.802-32.66-72.802-72.79c0-40.145,32.666-72.802,72.802-72.802s72.79,32.657,72.79,72.802
			C305.902,273.241,273.26,305.895,233.112,305.895z"/>
	</g>
</g>
<g>
</g>
<g>
</g>
<g>
</g>
<g>
</g>
<g>
</g>
<g>
</g>
<g>
</g>
<g>
</g>
<g>
</g>
<g>
</g>
<g>
</g>
<g>
</g>
<g>
</g>
<g>
</g>
<g>
</g>
</svg>
