<?xml version="1.0" standalone="no"?>
<!DOCTYPE svg PUBLIC "-//W3C//DTD SVG 20010904//EN"
 "http://www.w3.org/TR/2001/REC-SVG-20010904/DTD/svg10.dtd">
<svg version="1.0" xmlns="http://www.w3.org/2000/svg"
 width="500.000000pt" height="500.000000pt" viewBox="0 0 500.000000 500.000000"
 preserveAspectRatio="xMidYMid meet">

<g transform="translate(0.000000,500.000000) scale(0.100000,-0.100000)"
fill="#000000" stroke="none">
<path d="M0 2500 l0 -2500 2500 0 2500 0 0 2500 0 2500 -2500 0 -2500 0 0
-2500z m2701 2280 c419 -42 801 -187 1128 -427 489 -359 806 -870 912 -1468
31 -177 34 -593 6 -750 -87 -473 -282 -863 -603 -1203 -263 -280 -641 -515
-989 -616 -257 -74 -406 -96 -665 -96 -374 0 -672 67 -996 226 -242 118 -487
293 -639 456 -112 120 -132 143 -199 233 -231 307 -373 647 -432 1035 -18 122
-25 475 -12 581 35 271 86 459 187 686 277 627 861 1118 1526 1282 111 27 276
56 370 64 92 8 310 6 406 -3z"/>
<path d="M2269 4356 c-144 -19 -235 -39 -361 -80 -398 -130 -743 -392 -976
-743 -279 -418 -374 -915 -270 -1418 49 -239 166 -504 313 -707 71 -98 231
-267 330 -348 233 -191 517 -325 817 -386 120 -25 154 -27 353 -28 167 0 243
4 315 17 448 82 834 303 1118 641 103 122 158 206 237 361 226 444 263 944
106 1424 -218 663 -789 1146 -1486 1257 -132 21 -370 26 -496 10z m-288 -1235
c87 -42 161 -122 184 -200 11 -37 -11 -16 -36 35 -32 64 -104 127 -175 154
-48 18 -73 21 -139 18 -99 -5 -159 -31 -219 -93 -65 -66 -89 -137 -84 -245 6
-135 63 -224 178 -279 47 -22 69 -26 145 -26 80 0 97 3 148 29 66 34 118 86
149 151 23 47 44 62 33 23 -13 -42 -64 -114 -105 -146 -73 -59 -124 -76 -230
-77 -84 0 -102 3 -151 28 -66 32 -132 99 -162 165 -18 38 -22 66 -22 147 0 89
3 106 28 157 42 85 116 149 207 179 14 5 66 7 115 5 68 -2 101 -8 136 -25z
m1299 -2 c68 -32 131 -93 165 -158 27 -54 29 -61 18 -61 -5 0 -21 25 -37 55
-58 111 -166 175 -296 175 -135 0 -234 -60 -292 -177 -28 -58 -32 -75 -31
-148 0 -99 29 -171 93 -235 66 -66 117 -85 230 -85 89 0 99 2 158 34 68 37
110 81 143 149 12 23 25 42 30 42 14 0 11 -12 -20 -65 -38 -67 -94 -120 -161
-153 -48 -23 -67 -27 -150 -27 -82 0 -103 4 -150 26 -67 32 -123 87 -158 154
-34 66 -43 199 -18 276 34 101 107 177 206 213 70 25 200 18 270 -15z m-2450
-315 c0 -221 -3 -333 -10 -329 -6 4 -10 127 -10 336 0 213 4 329 10 329 6 0
10 -119 10 -336z m257 131 l118 -170 3 180 c1 99 7 184 12 189 7 7 10 -64 10
-203 0 -133 -4 -211 -10 -209 -11 3 -280 384 -288 408 -11 34 41 -32 155 -195z
m273 -131 c0 -221 -3 -333 -10 -329 -6 4 -10 127 -10 336 0 213 4 329 10 329
6 0 10 -119 10 -336z m1140 -314 c120 0 190 -4 190 -10 0 -14 -387 -14 -392 0
-1 5 -1 157 2 337 l5 328 3 -327 2 -328 190 0z m65 130 c77 0 125 -4 125 -10
0 -6 -50 -10 -129 -10 l-129 0 -6 26 c-9 33 -6 467 3 497 3 12 7 -96 9 -240
l2 -263 125 0z m1541 509 c24 -6 44 -16 44 -21 0 -6 -11 -7 -27 -3 -152 39
-248 9 -294 -90 -50 -107 -3 -193 141 -257 36 -16 73 -37 82 -45 27 -25 23
-68 -9 -93 -24 -18 -38 -21 -88 -18 -63 4 -161 41 -151 57 3 5 25 -1 48 -12
57 -29 158 -35 181 -12 18 17 22 42 9 61 -4 7 -47 31 -95 54 -66 31 -95 51
-117 81 -69 95 -36 230 69 286 50 26 131 31 207 12z m-436 -9 c0 -16 -88 -105
-96 -97 -4 4 14 30 41 57 53 53 55 55 55 40z m-1777 -111 c155 -43 198 -263
72 -367 -87 -71 -216 -58 -289 29 -38 45 -23 50 22 7 51 -49 78 -61 137 -61
57 0 97 18 137 60 103 109 33 304 -116 320 -60 7 -111 -12 -157 -60 -51 -52
-63 -41 -12 13 57 61 127 81 206 59z m1308 -4 c108 -38 165 -157 127 -266 -51
-150 -233 -192 -343 -79 -21 22 -35 43 -32 47 4 4 20 -7 36 -24 41 -45 87 -66
147 -65 180 1 250 223 107 341 -72 59 -175 51 -247 -20 -44 -45 -59 -45 -27 0
26 36 113 81 157 81 17 0 51 -7 75 -15z m892 -6 c20 -5 37 -15 37 -21 0 -6 -9
-8 -22 -3 -13 4 -47 9 -76 12 -57 6 -92 -12 -92 -48 0 -22 2 -23 108 -79 104
-55 143 -98 149 -167 7 -72 -11 -125 -56 -166 -46 -41 -93 -57 -172 -57 -74 0
-195 37 -178 54 3 3 29 -4 58 -15 35 -13 79 -20 127 -21 62 0 80 3 118 26 56
32 86 86 86 151 0 84 -42 133 -162 190 -57 27 -79 44 -88 65 -13 32 -3 62 28
79 22 13 87 14 135 0z m-2991 -314 c76 -109 138 -203 138 -208 0 -19 -30 16
-91 106 -34 51 -90 130 -123 176 l-61 85 -3 -188 c-1 -118 -6 -185 -12 -181
-16 10 -13 418 2 413 7 -3 74 -94 150 -203z m938 -715 c14 -27 -2 -58 -35 -66
-14 -3 -25 -12 -25 -20 0 -8 -4 -14 -10 -14 -11 0 -14 103 -3 113 15 15 63 7
73 -13z m360 8 c0 -6 -11 -26 -25 -44 -14 -18 -25 -37 -25 -43 0 -6 11 -11 25
-11 14 0 25 -4 25 -10 0 -5 -20 -10 -45 -10 -53 0 -56 11 -20 61 l26 34 -26
11 c-14 5 -22 13 -19 17 12 12 84 8 84 -5z m210 0 c0 -6 -11 -26 -26 -45 -27
-35 -25 -53 7 -53 10 0 19 -4 19 -10 0 -5 -20 -10 -45 -10 -53 0 -58 13 -20
58 30 36 30 38 5 45 -35 9 -22 27 20 27 24 0 40 -5 40 -12z m394 6 c26 -10 18
-27 -8 -20 -37 9 -41 -11 -6 -29 25 -13 31 -22 28 -43 -3 -23 -8 -27 -37 -27
-19 0 -36 6 -39 13 -3 9 3 11 21 7 37 -10 42 12 7 30 -58 30 -28 93 34 69z
m-824 -65 c0 -37 -4 -58 -10 -54 -5 3 -10 31 -10 61 0 30 5 54 10 54 6 0 10
-27 10 -61z m626 8 c21 -49 22 -89 2 -53 -11 19 -49 21 -66 4 -22 -22 -22 -1
-1 50 12 29 27 52 33 52 6 0 21 -24 32 -53z m-971 -17 c-3 -5 -12 -10 -20 -10
-8 0 -17 5 -20 10 -4 6 5 10 20 10 15 0 24 -4 20 -10z m1345 0 c0 -5 -6 -10
-14 -10 -8 0 -18 5 -21 10 -3 6 3 10 14 10 12 0 21 -4 21 -10z"/>
<path d="M1982 1948 c7 -19 38 -22 38 -4 0 10 -9 16 -21 16 -12 0 -19 -5 -17
-12z"/>
</g>
</svg>
